<!-- Generated by IcoMoon.io -->
<svg version="1.1" xmlns="http://www.w3.org/2000/svg" width="28" height="28" viewBox="0 0 28 28">
<title>appleinc</title>
<path d="M21.643 14.878c-0.035-3.546 2.892-5.247 3.023-5.331-1.645-2.407-4.207-2.737-5.12-2.775-2.18-0.221-4.255 1.284-5.361 1.284-1.104 0-2.811-1.251-4.62-1.218-2.377 0.035-4.568 1.382-5.792 3.51-2.469 4.285-0.632 10.632 1.774 14.107 1.176 1.701 2.578 3.611 4.419 3.543 1.773-0.071 2.443-1.147 4.587-1.147s2.746 1.147 4.622 1.112c1.908-0.035 3.117-1.734 4.285-3.44 1.351-1.973 1.907-3.884 1.939-3.982-0.042-0.019-3.72-1.428-3.757-5.664zM18.117 4.471c0.977-1.186 1.637-2.83 1.457-4.471-1.408 0.057-3.114 0.938-4.124 2.121-0.906 1.049-1.699 2.724-1.487 4.332 1.571 0.123 3.175-0.799 4.154-1.981z"></path>
</svg>
