<!-- Generated by IcoMoon.io -->
<svg version="1.1" xmlns="http://www.w3.org/2000/svg" width="28" height="28" viewBox="0 0 28 28">
<title>instagram</title>
<path d="M14 2.521c3.741 0 4.184 0.016 5.655 0.082 1.367 0.060 2.105 0.29 2.598 0.481 0.651 0.252 1.121 0.558 1.608 1.045 0.492 0.492 0.793 0.957 1.050 1.608 0.191 0.492 0.421 1.236 0.481 2.598 0.066 1.477 0.082 1.92 0.082 5.655s-0.016 4.184-0.082 5.655c-0.060 1.367-0.29 2.105-0.481 2.598-0.252 0.651-0.558 1.121-1.045 1.608-0.492 0.492-0.957 0.793-1.608 1.050-0.492 0.191-1.236 0.421-2.598 0.481-1.477 0.066-1.92 0.082-5.655 0.082s-4.184-0.016-5.655-0.082c-1.367-0.060-2.105-0.29-2.598-0.481-0.651-0.252-1.121-0.558-1.608-1.045-0.492-0.492-0.793-0.957-1.050-1.608-0.191-0.492-0.421-1.236-0.481-2.598-0.066-1.477-0.082-1.92-0.082-5.655s0.016-4.184 0.082-5.655c0.060-1.367 0.29-2.105 0.481-2.598 0.252-0.651 0.558-1.121 1.045-1.608 0.492-0.492 0.957-0.793 1.608-1.050 0.492-0.191 1.236-0.421 2.598-0.481 1.471-0.066 1.914-0.082 5.655-0.082zM14 0c-3.801 0-4.277 0.016-5.77 0.082-1.487 0.066-2.51 0.306-3.396 0.651-0.924 0.361-1.706 0.837-2.483 1.619-0.782 0.777-1.258 1.559-1.619 2.477-0.345 0.891-0.585 1.909-0.651 3.396-0.066 1.498-0.082 1.974-0.082 5.775s0.016 4.277 0.082 5.77c0.066 1.488 0.306 2.51 0.651 3.396 0.361 0.924 0.837 1.706 1.619 2.483 0.777 0.777 1.559 1.258 2.477 1.613 0.891 0.345 1.909 0.585 3.396 0.651 1.493 0.066 1.969 0.082 5.77 0.082s4.277-0.016 5.77-0.082c1.488-0.066 2.51-0.306 3.396-0.651 0.919-0.355 1.701-0.837 2.477-1.613s1.258-1.559 1.613-2.477c0.345-0.891 0.585-1.909 0.651-3.396 0.066-1.493 0.082-1.969 0.082-5.77s-0.016-4.277-0.082-5.77c-0.066-1.488-0.306-2.51-0.651-3.396-0.345-0.93-0.82-1.712-1.602-2.488-0.777-0.777-1.559-1.258-2.477-1.613-0.891-0.345-1.909-0.585-3.396-0.651-1.498-0.071-1.974-0.088-5.775-0.088v0z"></path>
<path d="M14 6.809c-3.97 0-7.191 3.221-7.191 7.191s3.221 7.191 7.191 7.191 7.191-3.221 7.191-7.191c0-3.97-3.221-7.191-7.191-7.191zM14 18.665c-2.576 0-4.665-2.089-4.665-4.665s2.089-4.665 4.665-4.665c2.576 0 4.665 2.089 4.665 4.665s-2.089 4.665-4.665 4.665z"></path>
<path d="M23.155 6.524c0 0.927-0.752 1.679-1.679 1.679s-1.679-0.752-1.679-1.679c0-0.927 0.752-1.679 1.679-1.679s1.679 0.752 1.679 1.679z"></path>
</svg>
