<!-- Generated by IcoMoon.io -->
<svg version="1.1" xmlns="http://www.w3.org/2000/svg" width="28" height="28" viewBox="0 0 28 28">
<title>soundcloud</title>
<path d="M24.39 14.060c-0.495 0-0.967 0.096-1.396 0.269-0.287-3.127-3.016-5.58-6.344-5.58-0.814 0-1.605 0.154-2.306 0.415-0.272 0.101-0.344 0.206-0.344 0.408v11.012c0 0.212 0.171 0.389 0.386 0.41 0.009 0.001 9.94 0.006 10.005 0.006 1.993 0 3.609-1.554 3.609-3.47s-1.617-3.47-3.61-3.47zM10.938 21h0.875l0.438-6.131-0.438-6.119h-0.875l-0.438 6.119zM8.313 21h-0.875l-0.438-4.45 0.438-4.3h0.875l0.438 4.375zM3.938 21h0.875l0.438-3.5-0.438-3.5h-0.875l-0.438 3.5zM0.438 19.25h0.875l0.438-1.75-0.438-1.75h-0.875l-0.438 1.75z"></path>
</svg>
