<!-- Generated by IcoMoon.io -->
<svg version="1.1" xmlns="http://www.w3.org/2000/svg" width="28" height="28" viewBox="0 0 28 28">
<title>spotify</title>
<path d="M14 0c-7.7 0-14 6.3-14 14s6.3 14 14 14 14-6.3 14-14-6.229-14-14-14zM20.442 20.229c-0.279 0.421-0.771 0.558-1.192 0.279-3.292-2.029-7.421-2.45-12.321-1.329-0.492 0.142-0.908-0.208-1.050-0.629-0.142-0.492 0.208-0.908 0.629-1.050 5.321-1.192 9.942-0.7 13.579 1.542 0.492 0.208 0.563 0.766 0.355 1.187zM22.121 16.379c-0.35 0.492-0.979 0.7-1.471 0.35-3.779-2.308-9.521-3.008-13.929-1.608-0.558 0.142-1.192-0.142-1.329-0.7-0.142-0.558 0.142-1.192 0.7-1.329 5.108-1.542 11.408-0.771 15.75 1.892 0.416 0.208 0.629 0.908 0.279 1.395zM22.258 12.458c-4.479-2.658-11.971-2.942-16.242-1.608-0.7 0.208-1.4-0.208-1.608-0.842-0.208-0.7 0.208-1.4 0.842-1.608 4.971-1.471 13.158-1.192 18.342 1.892 0.629 0.35 0.842 1.192 0.492 1.821-0.355 0.487-1.192 0.695-1.827 0.345z"></path>
</svg>
