<!-- Generated by IcoMoon.io -->
<svg version="1.1" xmlns="http://www.w3.org/2000/svg" width="28" height="28" viewBox="0 0 28 28">
<title>youtube</title>
<path d="M27.721 8.4c0 0-0.273-1.93-1.116-2.778-1.066-1.116-2.259-1.121-2.805-1.187-3.916-0.284-9.795-0.284-9.795-0.284h-0.011c0 0-5.879 0-9.795 0.284-0.547 0.066-1.739 0.071-2.805 1.187-0.842 0.848-1.11 2.778-1.11 2.778s-0.279 2.264-0.279 4.534v2.122c0 2.264 0.279 4.534 0.279 4.534s0.273 1.93 1.11 2.778c1.066 1.116 2.466 1.077 3.090 1.198 2.242 0.213 9.521 0.279 9.521 0.279s5.884-0.011 9.8-0.29c0.547-0.066 1.739-0.071 2.805-1.187 0.842-0.848 1.116-2.778 1.116-2.778s0.279-2.264 0.279-4.534v-2.122c-0.005-2.264-0.284-4.534-0.284-4.534zM11.107 17.631v-7.87l7.563 3.948-7.563 3.921z"></path>
</svg>
